<svg t="1770559751201" class="icon" viewBox="0 0 1024 1024" version="1.1" xmlns="http://www.w3.org/2000/svg" p-id="4938" width="200" height="200"><path d="M340.004571 865.133714c0-50.285714-55.442286-57.161143-94.281142-57.161143-40.557714 0-90.294857 8.557714-90.294858 59.428572 0 51.419429 58.843429 57.709714 98.304 57.709714 41.728 0 86.272-10.276571 86.272-60.013714z m-33.718857-431.433143c0-42.861714-20.553143-81.700571-67.986285-81.700571-52.553143 0-70.838857 34.852571-70.838858 82.870857 0 47.433143 20.553143 77.129143 70.838858 77.129143 49.700571 0 67.986286-32 67.986285-78.299429z m153.709715-185.124571v115.419429c-14.848 5.156571-29.696 9.142857-45.129143 12.580571 5.705143 15.433143 9.142857 31.414857 9.142857 48.018286 0 96.585143-59.428571 170.276571-154.294857 188.013714-28.562286 5.705143-45.129143 17.700571-45.129143 48.566857 0 87.442286 230.838857 28.013714 230.838857 189.147429 0 130.852571-88.576 173.714286-207.433143 173.714285-97.718857 0-209.152-32.585143-209.152-150.272 0-68.571429 41.728-107.995429 104.009143-128.585142v-2.304c-26.294857-16.018286-38.290286-41.142857-38.290286-72.009143 0-29.147429 6.290286-65.133714 35.986286-78.299429v-2.304c-57.709714-19.419429-95.414857-98.852571-95.414857-156.562286 0-106.861714 82.870857-185.161143 188.562286-185.161142 35.437714 0 70.838857 9.142857 101.705142 26.843428 42.861714 0 85.138286-11.446857 124.562286-26.843428z m181.723428 503.442286h-126.866286c2.304-25.709714 2.304-50.870857 2.304-76.580572V327.424c0-24.576 0.585143-49.152-2.304-73.142857h126.866286c-2.852571 23.442286-2.304 47.433143-2.304 70.838857v350.281143c0 25.709714 0 50.870857 2.304 76.580571z m343.442286-126.866286v112.018286c-30.281143 16.566857-65.133714 22.272-99.437714 22.272-122.294857 0-136.557714-96.585143-136.557715-195.986286V362.898286h1.133715V360.594286c-7.424 0-14.299429-1.133714-21.138286-1.133715-11.446857 0-22.857143 1.718857-33.718857 3.437715V254.317714h54.857143V210.870857c0-17.152-0.585143-34.304-3.437715-50.870857h129.718857c-4.571429 31.414857-3.437714 62.866286-3.437714 94.281143h97.718857v108.580571c-16.566857 0-33.133714-2.304-49.152-2.304h-48.566857v208.566857c0 33.718857 7.424 74.861714 49.700572 74.861715 22.272 0 43.995429-6.290286 62.281142-18.870857z m-329.142857-541.147429c0 42.861714-33.133714 82.870857-77.129143 82.870858-45.129143 0-78.848-39.424-78.848-82.870858 0-43.995429 33.133714-84.004571 78.848-84.004571 45.129143 0 77.129143 41.142857 77.129143 84.004571z" fill="" p-id="4939"></path></svg>