<svg xmlns="http://www.w3.org/2000/svg" xmlns:xlink="http://www.w3.org/1999/xlink" fill="none" version="1.1" width="16" height="16" viewBox="0 0 16 16"><defs><clipPath id="master_svg0_2_009"><rect x="-0.5" y="-0.5" width="17" height="17" rx="0"/></clipPath></defs><g clip-path="url(#master_svg0_2_009)"><rect x="0" y="0" width="16" height="16" rx="0" fill="#FFFFFF" fill-opacity="0"/><path d="M13.303301,2.6966989Q11.106603,0.5,7.9999995,0.5Q4.893398299999999,0.49999945999999995,2.6966989,2.6966987Q0.5,4.8933973,0.49999917000000005,7.9999962Q0.49999945999999995,11.1066,2.6966987,13.3033Q4.8933966,15.499999,7.9999962,15.499999Q11.106601,15.499999,13.3033,13.303301Q15.499999,11.106603,15.499999,7.9999995Q15.499999,4.8933973,13.303301,2.6966989ZM3.4038057,3.4038055Q5.3076115,1.49999952,7.9999995,1.49999917Q10.6923885,1.5,12.596193,3.4038057Q14.499999,5.3076115,14.499999,7.9999995Q14.499999,9.3797827,14,10.5524597L14,10L9.5,10L9.5,8.499998999999999L10.3295174,8.499998999999999Q11.86038,8.499998999999999,12.344481,7.0476942L12.353717,7.0199862Q12.527045,6.5,12.353718,5.9800162Q11.860379,4.499999799999999,10.3003054,4.499999799999999L2.5075598,4.499999799999999Q2.8849903,3.922621,3.4038057,3.4038055ZM2.5,4.5115921Q1.4999997600000001,6.0486884,1.49999917,7.9999962Q1.49999952,10.6923857,3.4038055,12.596192Q5.3076119,14.499999,7.9999962,14.499999Q10.6923857,14.499999,12.596192,12.596193Q13.334922,11.857465,13.787004,11L8.5,11L8.5,5.5L5.75,5.5L5.75,10L7,10L6.9999995,7.9999995L7.9999995,7.9999995L7.9999995,11L3.5,11L3.5,10L4.7499994999999995,10L4.7499994999999995,5.5L2.5,5.5L2.5,4.5115921ZM9.5,7.4999995L10.3295174,7.4999995Q11.139621,7.4999995,11.395797,6.7314682L11.405036,6.7037539Q11.472954,6.5,11.405035,6.2962432Q11.139621,5.5,10.3003054,5.5L9.5,5.5L9.5,7.4999995ZM6.9999995,6.5L6.9999995,7.5L7.9999995,7.5L7.9999995,6.5L6.9999995,6.5Z" fill-rule="evenodd" fill="#C53E3E" fill-opacity="1"/></g></svg>